<mxfile host="app.diagrams.net" modified="2021-03-18T10:09:04.560Z" agent="5.0 (Windows NT 10.0; Win64; x64) AppleWebKit/537.36 (KHTML, like Gecko) Chrome/89.0.4389.90 Safari/537.36" etag="2PsAv43NrCVsatodstrT" version="14.4.9" type="github">
  <diagram name="Page-1" id="13e1069c-82ec-6db2-03f1-153e76fe0fe0">
    <mxGraphModel dx="1038" dy="548" grid="1" gridSize="10" guides="1" tooltips="1" connect="1" arrows="1" fold="1" page="1" pageScale="1" pageWidth="1100" pageHeight="850" background="#ffffff" math="0" shadow="0">
      <root>
        <mxCell id="0" />
        <mxCell id="1" parent="0" />
        <mxCell id="J58SbyeVHCkeHuOpLDCn-2" value="" style="endArrow=none;dashed=1;html=1;entryX=0.5;entryY=1;entryDx=0;entryDy=0;" edge="1" parent="1" source="J58SbyeVHCkeHuOpLDCn-10">
          <mxGeometry width="50" height="50" relative="1" as="geometry">
            <mxPoint x="280" y="450" as="sourcePoint" />
            <mxPoint x="280" y="150" as="targetPoint" />
          </mxGeometry>
        </mxCell>
        <mxCell id="J58SbyeVHCkeHuOpLDCn-3" value="Web Manager" style="rounded=1;whiteSpace=wrap;html=1;" vertex="1" parent="1">
          <mxGeometry x="440" y="110" width="100" height="40" as="geometry" />
        </mxCell>
        <mxCell id="J58SbyeVHCkeHuOpLDCn-4" value="" style="endArrow=none;dashed=1;html=1;entryX=0.5;entryY=1;entryDx=0;entryDy=0;" edge="1" parent="1" target="J58SbyeVHCkeHuOpLDCn-3" source="J58SbyeVHCkeHuOpLDCn-21">
          <mxGeometry width="50" height="50" relative="1" as="geometry">
            <mxPoint x="490" y="450" as="sourcePoint" />
            <mxPoint x="520" y="160" as="targetPoint" />
          </mxGeometry>
        </mxCell>
        <mxCell id="J58SbyeVHCkeHuOpLDCn-5" value="&amp;nbsp;Server" style="rounded=1;whiteSpace=wrap;html=1;" vertex="1" parent="1">
          <mxGeometry x="890" y="110" width="100" height="40" as="geometry" />
        </mxCell>
        <mxCell id="J58SbyeVHCkeHuOpLDCn-6" value="" style="endArrow=none;dashed=1;html=1;entryX=0.5;entryY=1;entryDx=0;entryDy=0;" edge="1" parent="1" target="J58SbyeVHCkeHuOpLDCn-5">
          <mxGeometry width="50" height="50" relative="1" as="geometry">
            <mxPoint x="940" y="530" as="sourcePoint" />
            <mxPoint x="970" y="160" as="targetPoint" />
          </mxGeometry>
        </mxCell>
        <mxCell id="J58SbyeVHCkeHuOpLDCn-7" value="Actor" style="shape=umlActor;verticalLabelPosition=bottom;verticalAlign=top;html=1;outlineConnect=0;" vertex="1" parent="1">
          <mxGeometry x="270" y="90" width="20" height="40" as="geometry" />
        </mxCell>
        <mxCell id="J58SbyeVHCkeHuOpLDCn-8" value="Config Page" style="shape=umlFrame;whiteSpace=wrap;html=1;width=100;height=30;" vertex="1" parent="1">
          <mxGeometry x="250" y="170" width="270" height="90" as="geometry" />
        </mxCell>
        <mxCell id="J58SbyeVHCkeHuOpLDCn-10" value="" style="html=1;points=[];perimeter=orthogonalPerimeter;" vertex="1" parent="1">
          <mxGeometry x="275" y="285" width="10" height="135" as="geometry" />
        </mxCell>
        <mxCell id="J58SbyeVHCkeHuOpLDCn-11" value="" style="endArrow=none;dashed=1;html=1;entryX=0.5;entryY=1;entryDx=0;entryDy=0;" edge="1" parent="1" target="J58SbyeVHCkeHuOpLDCn-10">
          <mxGeometry width="50" height="50" relative="1" as="geometry">
            <mxPoint x="280" y="530" as="sourcePoint" />
            <mxPoint x="280" y="155" as="targetPoint" />
          </mxGeometry>
        </mxCell>
        <mxCell id="J58SbyeVHCkeHuOpLDCn-20" value="drag widgets" style="html=1;verticalAlign=bottom;endArrow=block;" edge="1" parent="1">
          <mxGeometry width="80" relative="1" as="geometry">
            <mxPoint x="285" y="285" as="sourcePoint" />
            <mxPoint x="485" y="285" as="targetPoint" />
          </mxGeometry>
        </mxCell>
        <mxCell id="J58SbyeVHCkeHuOpLDCn-21" value="" style="html=1;points=[];perimeter=orthogonalPerimeter;" vertex="1" parent="1">
          <mxGeometry x="485" y="285" width="10" height="135" as="geometry" />
        </mxCell>
        <mxCell id="J58SbyeVHCkeHuOpLDCn-22" value="" style="endArrow=none;dashed=1;html=1;entryX=0.5;entryY=1;entryDx=0;entryDy=0;" edge="1" parent="1" target="J58SbyeVHCkeHuOpLDCn-21">
          <mxGeometry width="50" height="50" relative="1" as="geometry">
            <mxPoint x="490" y="530" as="sourcePoint" />
            <mxPoint x="490" y="155" as="targetPoint" />
          </mxGeometry>
        </mxCell>
        <mxCell id="J58SbyeVHCkeHuOpLDCn-33" value="APP Client" style="rounded=1;whiteSpace=wrap;html=1;" vertex="1" parent="1">
          <mxGeometry x="670" y="110" width="100" height="40" as="geometry" />
        </mxCell>
        <mxCell id="J58SbyeVHCkeHuOpLDCn-34" value="" style="endArrow=none;dashed=1;html=1;entryX=0.5;entryY=1;entryDx=0;entryDy=0;" edge="1" parent="1" source="J58SbyeVHCkeHuOpLDCn-47" target="J58SbyeVHCkeHuOpLDCn-33">
          <mxGeometry width="50" height="50" relative="1" as="geometry">
            <mxPoint x="720" y="530" as="sourcePoint" />
            <mxPoint x="750" y="160" as="targetPoint" />
          </mxGeometry>
        </mxCell>
        <mxCell id="J58SbyeVHCkeHuOpLDCn-38" value="" style="html=1;points=[];perimeter=orthogonalPerimeter;" vertex="1" parent="1">
          <mxGeometry x="935" y="365" width="10" height="55" as="geometry" />
        </mxCell>
        <mxCell id="J58SbyeVHCkeHuOpLDCn-39" value="build config" style="html=1;verticalAlign=bottom;endArrow=block;entryX=0;entryY=0;" edge="1" target="J58SbyeVHCkeHuOpLDCn-38" parent="1">
          <mxGeometry relative="1" as="geometry">
            <mxPoint x="500" y="365" as="sourcePoint" />
          </mxGeometry>
        </mxCell>
        <mxCell id="J58SbyeVHCkeHuOpLDCn-40" value="return" style="html=1;verticalAlign=bottom;endArrow=open;dashed=1;endSize=8;exitX=0;exitY=0.95;" edge="1" source="J58SbyeVHCkeHuOpLDCn-38" parent="1">
          <mxGeometry relative="1" as="geometry">
            <mxPoint x="500" y="417" as="targetPoint" />
            <Array as="points">
              <mxPoint x="610" y="417" />
            </Array>
          </mxGeometry>
        </mxCell>
        <mxCell id="J58SbyeVHCkeHuOpLDCn-41" value="return result" style="html=1;verticalAlign=bottom;endArrow=open;dashed=1;endSize=8;" edge="1" parent="1">
          <mxGeometry relative="1" as="geometry">
            <mxPoint x="490" y="420" as="sourcePoint" />
            <mxPoint x="290" y="420" as="targetPoint" />
          </mxGeometry>
        </mxCell>
        <mxCell id="J58SbyeVHCkeHuOpLDCn-47" value="" style="html=1;points=[];perimeter=orthogonalPerimeter;" vertex="1" parent="1">
          <mxGeometry x="715" y="440" width="10" height="80" as="geometry" />
        </mxCell>
        <mxCell id="J58SbyeVHCkeHuOpLDCn-48" value="" style="endArrow=none;dashed=1;html=1;entryX=0.5;entryY=1;entryDx=0;entryDy=0;" edge="1" parent="1" target="J58SbyeVHCkeHuOpLDCn-47">
          <mxGeometry width="50" height="50" relative="1" as="geometry">
            <mxPoint x="720" y="530" as="sourcePoint" />
            <mxPoint x="720" y="150" as="targetPoint" />
          </mxGeometry>
        </mxCell>
        <mxCell id="J58SbyeVHCkeHuOpLDCn-49" value="" style="html=1;points=[];perimeter=orthogonalPerimeter;" vertex="1" parent="1">
          <mxGeometry x="935" y="440" width="10" height="80" as="geometry" />
        </mxCell>
        <mxCell id="J58SbyeVHCkeHuOpLDCn-50" value="get configuration" style="html=1;verticalAlign=bottom;endArrow=block;exitX=1.02;exitY=0.018;exitDx=0;exitDy=0;exitPerimeter=0;" edge="1" parent="1" source="J58SbyeVHCkeHuOpLDCn-47">
          <mxGeometry relative="1" as="geometry">
            <mxPoint x="865" y="440" as="sourcePoint" />
            <mxPoint x="935" y="440" as="targetPoint" />
          </mxGeometry>
        </mxCell>
        <mxCell id="J58SbyeVHCkeHuOpLDCn-51" value="return" style="html=1;verticalAlign=bottom;endArrow=open;dashed=1;endSize=8;exitX=0;exitY=0.95;entryX=1.26;entryY=0.958;entryDx=0;entryDy=0;entryPerimeter=0;" edge="1" source="J58SbyeVHCkeHuOpLDCn-49" parent="1" target="J58SbyeVHCkeHuOpLDCn-47">
          <mxGeometry relative="1" as="geometry">
            <mxPoint x="865" y="516" as="targetPoint" />
          </mxGeometry>
        </mxCell>
      </root>
    </mxGraphModel>
  </diagram>
</mxfile>
